<?xml version="1.0" encoding="UTF-8" standalone="no"?>
<!-- Created with Inkscape (http://www.inkscape.org/) -->

<svg
   xmlns:dc="http://purl.org/dc/elements/1.1/"
   xmlns:cc="http://creativecommons.org/ns#"
   xmlns:rdf="http://www.w3.org/1999/02/22-rdf-syntax-ns#"
   xmlns:svg="http://www.w3.org/2000/svg"
   xmlns="http://www.w3.org/2000/svg"
   xmlns:sodipodi="http://sodipodi.sourceforge.net/DTD/sodipodi-0.dtd"
   xmlns:inkscape="http://www.inkscape.org/namespaces/inkscape"
   width="782"
   height="452"
   viewBox="0 0 206.90416 119.59167"
   version="1.1"
   id="svg8"
   inkscape:version="0.92.1 r15371"
   sodipodi:docname="layers.svg"
   inkscape:export-filename="C:\Users\adam\github\boardball\images\pitches\Boardball\Layers\01end_zones&amp;3&amp;over.png"
   inkscape:export-xdpi="96"
   inkscape:export-ydpi="96">
  <defs
     id="defs2" />
  <sodipodi:namedview
     id="base"
     pagecolor="#ffffff"
     bordercolor="#666666"
     borderopacity="1.0"
     inkscape:pageopacity="0.0"
     inkscape:pageshadow="2"
     inkscape:zoom="1.8597403"
     inkscape:cx="386.40608"
     inkscape:cy="421.66006"
     inkscape:document-units="px"
     inkscape:current-layer="g4716"
     showgrid="true"
     units="px"
     inkscape:window-width="1280"
     inkscape:window-height="753"
     inkscape:window-x="-4"
     inkscape:window-y="-4"
     inkscape:window-maximized="1"
     showguides="false"
     inkscape:lockguides="false">
    <inkscape:grid
       type="xygrid"
       id="grid4485"
       empspacing="30"
       originx="0.26458333"
       color="#3f3fff"
       opacity="0.04313725"
       empcolor="#3f3fff"
       empopacity="0.51372549"
       originy="0.26458333" />
    <inkscape:grid
       type="xygrid"
       id="grid4487"
       originx="0.13229167"
       originy="0.13229167"
       dotted="true"
       color="#ff3f3f"
       opacity="0.1254902"
       empcolor="#ff3f3f"
       empopacity="0.25098039"
       empspacing="1"
       enabled="true" />
  </sodipodi:namedview>
  <metadata
     id="metadata5">
    <rdf:RDF>
      <cc:Work
         rdf:about="">
        <dc:format>image/svg+xml</dc:format>
        <dc:type
           rdf:resource="http://purl.org/dc/dcmitype/StillImage" />
        <dc:title />
        <cc:license
           rdf:resource="http://creativecommons.org/publicdomain/zero/1.0/" />
      </cc:Work>
      <cc:License
         rdf:about="http://creativecommons.org/publicdomain/zero/1.0/">
        <cc:permits
           rdf:resource="http://creativecommons.org/ns#Reproduction" />
        <cc:permits
           rdf:resource="http://creativecommons.org/ns#Distribution" />
        <cc:permits
           rdf:resource="http://creativecommons.org/ns#DerivativeWorks" />
      </cc:License>
    </rdf:RDF>
  </metadata>
  <g
     inkscape:groupmode="layer"
     id="layer2"
     inkscape:label="Grid Lines (even width)"
     style="display:none"
     sodipodi:insensitive="true">
    <path
       id="use4614"
       style="fill:none;stroke:#000000;stroke-width:0.5291667;stroke-linecap:butt;stroke-linejoin:miter;stroke-miterlimit:4;stroke-dasharray:none;stroke-opacity:1"
       d="m 0.26458333,111.125 206.37499667,7e-5 M 0.26458333,103.1875 206.63958,103.18757 M 0.26458333,95.249997 206.63958,95.250067 M 0.26458333,87.312497 206.63958,87.312567 M 0.26458333,79.374997 206.63958,79.375067 M 0.26458333,71.437497 206.63958,71.437567 M 0.26458333,63.499997 206.63958,63.500067 M 0.26458333,55.562497 206.63958,55.562567 M 0.26458333,47.624997 206.63958,47.625067 M 0.26458333,39.687497 206.63958,39.687567 M 0.26458333,31.749997 206.63958,31.750067 M 0.26458333,23.812497 206.63958,23.812567 M 0.26458333,15.874997 206.63958,15.875067 M 0.26458333,7.9374967 206.63958,7.9375667 M 7.9375001,119.3271 V 0.2646 M 15.875,119.3271 V 0.2646 m 7.9375,119.0625 V 0.2646 M 31.75,119.3271 V 0.2646 m 7.9375,119.0625 V 0.2646 M 47.625,119.3271 V 0.2646 m 7.9375,119.0625 V 0.2646 M 63.5,119.3271 V 0.2646 m 7.9375,119.0625 V 0.2646 M 79.375,119.3271 V 0.2646 m 7.9375,119.0625 V 0.2646 M 95.25,119.3271 V 0.2646 m 7.9375,119.0625 V 0.2646 m 7.9375,119.0625 V 0.2646 m 7.9375,119.0625 V 0.2646 M 127,119.3271 V 0.2646 m 7.9375,119.0625 V 0.2646 m 7.9375,119.0625 V 0.2646 m 7.9375,119.0625 V 0.2646 M 158.75,119.3271 V 0.2646 m 7.9375,119.0625 V 0.2646 m 7.9375,119.0625 V 0.2646 m 7.9375,119.0625 V 0.2646 M 190.5,119.3271 V 0.2646 m 7.9375,119.0625 V 0.2646"
       inkscape:connector-curvature="0" />
  </g>
  <g
     style="display:none"
     inkscape:label="Grid Points (even width)"
     id="g4563"
     inkscape:groupmode="layer"
     sodipodi:insensitive="true">
    <path
       id="path4701"
       style="fill:#000000;stroke:none;stroke-width:0.39687499;stroke-linecap:round;stroke-linejoin:round;stroke-miterlimit:4;stroke-dasharray:none;stroke-opacity:1"
       d="m 198.17292,110.86042 h 0.52916 v 0.52916 h -0.52916 z m -7.9375,0 h 0.52916 v 0.52916 h -0.52916 z m -7.9375,0 h 0.52916 v 0.52916 h -0.52916 z m -7.9375,0 h 0.52916 v 0.52916 h -0.52916 z m -7.9375,0 h 0.52916 v 0.52916 h -0.52916 z m -7.9375,0 h 0.52916 v 0.52916 h -0.52916 z m -7.9375,0 h 0.52916 v 0.52916 h -0.52916 z m -7.9375,0 h 0.52916 v 0.52916 h -0.52916 z m -7.9375,0 h 0.52916 v 0.52916 h -0.52916 z m -7.9375,0 h 0.52916 v 0.52916 h -0.52916 z m -7.9375,0 h 0.52916 v 0.52916 h -0.52916 z m -7.9375,0 h 0.52916 v 0.52916 h -0.52916 z m -7.9375,0 h 0.52916 v 0.52916 h -0.52916 z m -7.937504,0 h 0.529167 v 0.52916 h -0.529167 z m -7.9375,0 h 0.529167 v 0.52916 h -0.529167 z m -7.9375,0 h 0.529167 v 0.52916 h -0.529167 z m -7.9375,0 h 0.529167 v 0.52916 h -0.529167 z m -7.9375,0 h 0.529167 v 0.52916 h -0.529167 z m -7.9375,0 h 0.529167 v 0.52916 h -0.529167 z m -7.9375,0 h 0.529167 v 0.52916 h -0.529167 z m -7.9375,0 h 0.529167 v 0.52916 h -0.529167 z m -7.9375,0 h 0.529167 v 0.52916 h -0.529167 z m -7.9375,0 h 0.529167 v 0.52916 h -0.529167 z m -7.9375,0 h 0.529167 v 0.52916 h -0.529167 z m -7.9374996,0 h 0.5291667 v 0.52916 H 7.6729164 Z m 190.5000036,-7.9375 h 0.52916 v 0.52916 h -0.52916 z m -7.9375,0 h 0.52916 v 0.52916 h -0.52916 z m -7.9375,0 h 0.52916 v 0.52916 h -0.52916 z m -7.9375,0 h 0.52916 v 0.52916 h -0.52916 z m -7.9375,0 h 0.52916 v 0.52916 h -0.52916 z m -7.9375,0 h 0.52916 v 0.52916 h -0.52916 z m -7.9375,0 h 0.52916 v 0.52916 h -0.52916 z m -7.9375,0 h 0.52916 v 0.52916 h -0.52916 z m -7.9375,0 h 0.52916 v 0.52916 h -0.52916 z m -7.9375,0 h 0.52916 v 0.52916 h -0.52916 z m -7.9375,0 h 0.52916 v 0.52916 h -0.52916 z m -7.9375,0 h 0.52916 v 0.52916 h -0.52916 z m -7.9375,0 h 0.52916 v 0.52916 h -0.52916 z m -7.937504,0 h 0.529167 v 0.52916 h -0.529167 z m -7.9375,0 h 0.529167 v 0.52916 h -0.529167 z m -7.9375,0 h 0.529167 v 0.52916 h -0.529167 z m -7.9375,0 h 0.529167 v 0.52916 h -0.529167 z m -7.9375,0 h 0.529167 v 0.52916 h -0.529167 z m -7.9375,0 h 0.529167 v 0.52916 h -0.529167 z m -7.9375,0 h 0.529167 v 0.52916 h -0.529167 z m -7.9375,0 h 0.529167 v 0.52916 h -0.529167 z m -7.9375,0 h 0.529167 v 0.52916 h -0.529167 z m -7.9375,0 h 0.529167 v 0.52916 h -0.529167 z m -7.9375,0 h 0.529167 v 0.52916 h -0.529167 z m -7.9374996,0 h 0.5291667 v 0.52916 H 7.6729164 Z M 198.17292,94.985416 h 0.52916 v 0.529167 h -0.52916 z m -7.9375,0 h 0.52916 v 0.529167 h -0.52916 z m -7.9375,0 h 0.52916 v 0.529167 h -0.52916 z m -7.9375,0 h 0.52916 v 0.529167 h -0.52916 z m -7.9375,0 h 0.52916 v 0.529167 h -0.52916 z m -7.9375,0 h 0.52916 v 0.529167 h -0.52916 z m -7.9375,0 h 0.52916 v 0.529167 h -0.52916 z m -7.9375,0 h 0.52916 v 0.529167 h -0.52916 z m -7.9375,0 h 0.52916 v 0.529167 h -0.52916 z m -7.9375,0 h 0.52916 v 0.529167 h -0.52916 z m -7.9375,0 h 0.52916 v 0.529167 h -0.52916 z m -7.9375,0 h 0.52916 v 0.529167 h -0.52916 z m -7.9375,0 h 0.52916 v 0.529167 h -0.52916 z m -7.937504,0 h 0.529167 v 0.529167 h -0.529167 z m -7.9375,0 h 0.529167 v 0.529167 h -0.529167 z m -7.9375,0 h 0.529167 v 0.529167 h -0.529167 z m -7.9375,0 h 0.529167 v 0.529167 h -0.529167 z m -7.9375,0 h 0.529167 v 0.529167 h -0.529167 z m -7.9375,0 h 0.529167 v 0.529167 h -0.529167 z m -7.9375,0 h 0.529167 v 0.529167 h -0.529167 z m -7.9375,0 h 0.529167 v 0.529167 h -0.529167 z m -7.9375,0 h 0.529167 v 0.529167 h -0.529167 z m -7.9375,0 h 0.529167 v 0.529167 h -0.529167 z m -7.9375,0 h 0.529167 v 0.529167 h -0.529167 z m -7.9374996,0 h 0.5291667 v 0.529167 H 7.6729164 Z m 190.5000036,-7.9375 h 0.52916 v 0.529167 h -0.52916 z m -7.9375,0 h 0.52916 v 0.529167 h -0.52916 z m -7.9375,0 h 0.52916 v 0.529167 h -0.52916 z m -7.9375,0 h 0.52916 v 0.529167 h -0.52916 z m -7.9375,0 h 0.52916 v 0.529167 h -0.52916 z m -7.9375,0 h 0.52916 v 0.529167 h -0.52916 z m -7.9375,0 h 0.52916 v 0.529167 h -0.52916 z m -7.9375,0 h 0.52916 v 0.529167 h -0.52916 z m -7.9375,0 h 0.52916 v 0.529167 h -0.52916 z m -7.9375,0 h 0.52916 v 0.529167 h -0.52916 z m -7.9375,0 h 0.52916 v 0.529167 h -0.52916 z m -7.9375,0 h 0.52916 v 0.529167 h -0.52916 z m -7.9375,0 h 0.52916 v 0.529167 h -0.52916 z m -7.937504,0 h 0.529167 v 0.529167 h -0.529167 z m -7.9375,0 h 0.529167 v 0.529167 h -0.529167 z m -7.9375,0 h 0.529167 v 0.529167 h -0.529167 z m -7.9375,0 h 0.529167 v 0.529167 h -0.529167 z m -7.9375,0 h 0.529167 v 0.529167 h -0.529167 z m -7.9375,0 h 0.529167 v 0.529167 h -0.529167 z m -7.9375,0 h 0.529167 v 0.529167 h -0.529167 z m -7.9375,0 h 0.529167 v 0.529167 h -0.529167 z m -7.9375,0 h 0.529167 v 0.529167 h -0.529167 z m -7.9375,0 h 0.529167 v 0.529167 h -0.529167 z m -7.9375,0 h 0.529167 v 0.529167 h -0.529167 z m -7.9374996,0 h 0.5291667 v 0.529167 H 7.6729164 Z m 190.5000036,-7.9375 h 0.52916 v 0.529167 h -0.52916 z m -7.9375,0 h 0.52916 v 0.529167 h -0.52916 z m -7.9375,0 h 0.52916 v 0.529167 h -0.52916 z m -7.9375,0 h 0.52916 v 0.529167 h -0.52916 z m -7.9375,0 h 0.52916 v 0.529167 h -0.52916 z m -7.9375,0 h 0.52916 v 0.529167 h -0.52916 z m -7.9375,0 h 0.52916 v 0.529167 h -0.52916 z m -7.9375,0 h 0.52916 v 0.529167 h -0.52916 z m -7.9375,0 h 0.52916 v 0.529167 h -0.52916 z m -7.9375,0 h 0.52916 v 0.529167 h -0.52916 z m -7.9375,0 h 0.52916 v 0.529167 h -0.52916 z m -7.9375,0 h 0.52916 v 0.529167 h -0.52916 z m -7.9375,0 h 0.52916 v 0.529167 h -0.52916 z m -7.937504,0 h 0.529167 v 0.529167 h -0.529167 z m -7.9375,0 h 0.529167 v 0.529167 h -0.529167 z m -7.9375,0 h 0.529167 v 0.529167 h -0.529167 z m -7.9375,0 h 0.529167 v 0.529167 h -0.529167 z m -7.9375,0 h 0.529167 v 0.529167 h -0.529167 z m -7.9375,0 h 0.529167 v 0.529167 h -0.529167 z m -7.9375,0 h 0.529167 v 0.529167 h -0.529167 z m -7.9375,0 h 0.529167 v 0.529167 h -0.529167 z m -7.9375,0 h 0.529167 v 0.529167 h -0.529167 z m -7.9375,0 h 0.529167 v 0.529167 h -0.529167 z m -7.9375,0 h 0.529167 v 0.529167 h -0.529167 z m -7.9374996,0 h 0.5291667 v 0.529167 H 7.6729164 Z m 190.5000036,-7.9375 h 0.52916 v 0.529167 h -0.52916 z m -7.9375,0 h 0.52916 v 0.529167 h -0.52916 z m -7.9375,0 h 0.52916 v 0.529167 h -0.52916 z m -7.9375,0 h 0.52916 v 0.529167 h -0.52916 z m -7.9375,0 h 0.52916 v 0.529167 h -0.52916 z m -7.9375,0 h 0.52916 v 0.529167 h -0.52916 z m -7.9375,0 h 0.52916 v 0.529167 h -0.52916 z m -7.9375,0 h 0.52916 v 0.529167 h -0.52916 z m -7.9375,0 h 0.52916 v 0.529167 h -0.52916 z m -7.9375,0 h 0.52916 v 0.529167 h -0.52916 z m -7.9375,0 h 0.52916 v 0.529167 h -0.52916 z m -7.9375,0 h 0.52916 v 0.529167 h -0.52916 z m -7.9375,0 h 0.52916 v 0.529167 h -0.52916 z m -7.937504,0 h 0.529167 v 0.529167 h -0.529167 z m -7.9375,0 h 0.529167 v 0.529167 h -0.529167 z m -7.9375,0 h 0.529167 v 0.529167 h -0.529167 z m -7.9375,0 h 0.529167 v 0.529167 h -0.529167 z m -7.9375,0 h 0.529167 v 0.529167 h -0.529167 z m -7.9375,0 h 0.529167 v 0.529167 h -0.529167 z m -7.9375,0 h 0.529167 v 0.529167 h -0.529167 z m -7.9375,0 h 0.529167 v 0.529167 h -0.529167 z m -7.9375,0 h 0.529167 v 0.529167 h -0.529167 z m -7.9375,0 h 0.529167 v 0.529167 h -0.529167 z m -7.9375,0 h 0.529167 v 0.529167 h -0.529167 z m -7.9374996,0 h 0.5291667 v 0.529167 H 7.6729164 Z m 190.5000036,-7.9375 h 0.52916 v 0.529167 h -0.52916 z m -7.9375,0 h 0.52916 v 0.529167 h -0.52916 z m -7.9375,0 h 0.52916 v 0.529167 h -0.52916 z m -7.9375,0 h 0.52916 v 0.529167 h -0.52916 z m -7.9375,0 h 0.52916 v 0.529167 h -0.52916 z m -7.9375,0 h 0.52916 v 0.529167 h -0.52916 z m -7.9375,0 h 0.52916 v 0.529167 h -0.52916 z m -7.9375,0 h 0.52916 v 0.529167 h -0.52916 z m -7.9375,0 h 0.52916 v 0.529167 h -0.52916 z m -7.9375,0 h 0.52916 v 0.529167 h -0.52916 z m -7.9375,0 h 0.52916 v 0.529167 h -0.52916 z m -7.9375,0 h 0.52916 v 0.529167 h -0.52916 z m -7.9375,0 h 0.52916 v 0.529167 h -0.52916 z m -7.937504,0 h 0.529167 v 0.529167 h -0.529167 z m -7.9375,0 h 0.529167 v 0.529167 h -0.529167 z m -7.9375,0 h 0.529167 v 0.529167 h -0.529167 z m -7.9375,0 h 0.529167 v 0.529167 h -0.529167 z m -7.9375,0 h 0.529167 v 0.529167 h -0.529167 z m -7.9375,0 h 0.529167 v 0.529167 h -0.529167 z m -7.9375,0 h 0.529167 v 0.529167 h -0.529167 z m -7.9375,0 h 0.529167 v 0.529167 h -0.529167 z m -7.9375,0 h 0.529167 v 0.529167 h -0.529167 z m -7.9375,0 h 0.529167 v 0.529167 h -0.529167 z m -7.9375,0 h 0.529167 v 0.529167 h -0.529167 z m -7.9374996,0 h 0.5291667 v 0.529167 H 7.6729164 Z m 190.5000036,-7.9375 h 0.52916 v 0.529167 h -0.52916 z m -7.9375,0 h 0.52916 v 0.529167 h -0.52916 z m -7.9375,0 h 0.52916 v 0.529167 h -0.52916 z m -7.9375,0 h 0.52916 v 0.529167 h -0.52916 z m -7.9375,0 h 0.52916 v 0.529167 h -0.52916 z m -7.9375,0 h 0.52916 v 0.529167 h -0.52916 z m -7.9375,0 h 0.52916 v 0.529167 h -0.52916 z m -7.9375,0 h 0.52916 v 0.529167 h -0.52916 z m -7.9375,0 h 0.52916 v 0.529167 h -0.52916 z m -7.9375,0 h 0.52916 v 0.529167 h -0.52916 z m -7.9375,0 h 0.52916 v 0.529167 h -0.52916 z m -7.9375,0 h 0.52916 v 0.529167 h -0.52916 z m -7.9375,0 h 0.52916 v 0.529167 h -0.52916 z m -7.937504,0 h 0.529167 v 0.529167 h -0.529167 z m -7.9375,0 h 0.529167 v 0.529167 h -0.529167 z m -7.9375,0 h 0.529167 v 0.529167 h -0.529167 z m -7.9375,0 h 0.529167 v 0.529167 h -0.529167 z m -7.9375,0 h 0.529167 v 0.529167 h -0.529167 z m -7.9375,0 h 0.529167 v 0.529167 h -0.529167 z m -7.9375,0 h 0.529167 v 0.529167 h -0.529167 z m -7.9375,0 h 0.529167 v 0.529167 h -0.529167 z m -7.9375,0 h 0.529167 v 0.529167 h -0.529167 z m -7.9375,0 h 0.529167 v 0.529167 h -0.529167 z m -7.9375,0 h 0.529167 v 0.529167 h -0.529167 z m -7.9374996,0 h 0.5291667 v 0.529167 H 7.6729164 Z m 190.5000036,-7.9375 h 0.52916 v 0.529167 h -0.52916 z m -7.9375,0 h 0.52916 v 0.529167 h -0.52916 z m -7.9375,0 h 0.52916 v 0.529167 h -0.52916 z m -7.9375,0 h 0.52916 v 0.529167 h -0.52916 z m -7.9375,0 h 0.52916 v 0.529167 h -0.52916 z m -7.9375,0 h 0.52916 v 0.529167 h -0.52916 z m -7.9375,0 h 0.52916 v 0.529167 h -0.52916 z m -7.9375,0 h 0.52916 v 0.529167 h -0.52916 z m -7.9375,0 h 0.52916 v 0.529167 h -0.52916 z m -7.9375,0 h 0.52916 v 0.529167 h -0.52916 z m -7.9375,0 h 0.52916 v 0.529167 h -0.52916 z m -7.9375,0 h 0.52916 v 0.529167 h -0.52916 z m -7.9375,0 h 0.52916 v 0.529167 h -0.52916 z m -7.937504,0 h 0.529167 v 0.529167 h -0.529167 z m -7.9375,0 h 0.529167 v 0.529167 h -0.529167 z m -7.9375,0 h 0.529167 v 0.529167 h -0.529167 z m -7.9375,0 h 0.529167 v 0.529167 h -0.529167 z m -7.9375,0 h 0.529167 v 0.529167 h -0.529167 z m -7.9375,0 h 0.529167 v 0.529167 h -0.529167 z m -7.9375,0 h 0.529167 v 0.529167 h -0.529167 z m -7.9375,0 h 0.529167 v 0.529167 h -0.529167 z m -7.9375,0 h 0.529167 v 0.529167 h -0.529167 z m -7.9375,0 h 0.529167 v 0.529167 h -0.529167 z m -7.9375,0 h 0.529167 v 0.529167 h -0.529167 z m -7.9374996,0 h 0.5291667 v 0.529167 H 7.6729164 Z m 190.5000036,-7.9375 h 0.52916 v 0.529167 h -0.52916 z m -7.9375,0 h 0.52916 v 0.529167 h -0.52916 z m -7.9375,0 h 0.52916 v 0.529167 h -0.52916 z m -7.9375,0 h 0.52916 v 0.529167 h -0.52916 z m -7.9375,0 h 0.52916 v 0.529167 h -0.52916 z m -7.9375,0 h 0.52916 v 0.529167 h -0.52916 z m -7.9375,0 h 0.52916 v 0.529167 h -0.52916 z m -7.9375,0 h 0.52916 v 0.529167 h -0.52916 z m -7.9375,0 h 0.52916 v 0.529167 h -0.52916 z m -7.9375,0 h 0.52916 v 0.529167 h -0.52916 z m -7.9375,0 h 0.52916 v 0.529167 h -0.52916 z m -7.9375,0 h 0.52916 v 0.529167 h -0.52916 z m -7.9375,0 h 0.52916 v 0.529167 h -0.52916 z m -7.937504,0 h 0.529167 v 0.529167 h -0.529167 z m -7.9375,0 h 0.529167 v 0.529167 h -0.529167 z m -7.9375,0 h 0.529167 v 0.529167 h -0.529167 z m -7.9375,0 h 0.529167 v 0.529167 h -0.529167 z m -7.9375,0 h 0.529167 v 0.529167 h -0.529167 z m -7.9375,0 h 0.529167 v 0.529167 h -0.529167 z m -7.9375,0 h 0.529167 v 0.529167 h -0.529167 z m -7.9375,0 h 0.529167 v 0.529167 h -0.529167 z m -7.9375,0 h 0.529167 v 0.529167 h -0.529167 z m -7.9375,0 h 0.529167 v 0.529167 h -0.529167 z m -7.9375,0 h 0.529167 v 0.529167 h -0.529167 z m -7.9374996,0 h 0.5291667 v 0.529167 H 7.6729164 Z m 190.5000036,-7.9375 h 0.52916 v 0.529167 h -0.52916 z m -7.9375,0 h 0.52916 v 0.529167 h -0.52916 z m -7.9375,0 h 0.52916 v 0.529167 h -0.52916 z m -7.9375,0 h 0.52916 v 0.529167 h -0.52916 z m -7.9375,0 h 0.52916 v 0.529167 h -0.52916 z m -7.9375,0 h 0.52916 v 0.529167 h -0.52916 z m -7.9375,0 h 0.52916 v 0.529167 h -0.52916 z m -7.9375,0 h 0.52916 v 0.529167 h -0.52916 z m -7.9375,0 h 0.52916 v 0.529167 h -0.52916 z m -7.9375,0 h 0.52916 v 0.529167 h -0.52916 z m -7.9375,0 h 0.52916 v 0.529167 h -0.52916 z m -7.9375,0 h 0.52916 v 0.529167 h -0.52916 z m -7.9375,0 h 0.52916 v 0.529167 h -0.52916 z m -7.937504,0 h 0.529167 v 0.529167 h -0.529167 z m -7.9375,0 h 0.529167 v 0.529167 h -0.529167 z m -7.9375,0 h 0.529167 v 0.529167 h -0.529167 z m -7.9375,0 h 0.529167 v 0.529167 h -0.529167 z m -7.9375,0 h 0.529167 v 0.529167 h -0.529167 z m -7.9375,0 h 0.529167 v 0.529167 h -0.529167 z m -7.9375,0 h 0.529167 v 0.529167 h -0.529167 z m -7.9375,0 h 0.529167 v 0.529167 h -0.529167 z m -7.9375,0 h 0.529167 v 0.529167 h -0.529167 z m -7.9375,0 h 0.529167 v 0.529167 h -0.529167 z m -7.9375,0 h 0.529167 v 0.529167 h -0.529167 z m -7.9374996,0 h 0.5291667 v 0.529167 H 7.6729164 Z m 190.5000036,-7.9375 h 0.52916 v 0.529167 h -0.52916 z m -7.9375,0 h 0.52916 v 0.529167 h -0.52916 z m -7.9375,0 h 0.52916 v 0.529167 h -0.52916 z m -7.9375,0 h 0.52916 v 0.529167 h -0.52916 z m -7.9375,0 h 0.52916 v 0.529167 h -0.52916 z m -7.9375,0 h 0.52916 v 0.529167 h -0.52916 z m -7.9375,0 h 0.52916 v 0.529167 h -0.52916 z m -7.9375,0 h 0.52916 v 0.529167 h -0.52916 z m -7.9375,0 h 0.52916 v 0.529167 h -0.52916 z m -7.9375,0 h 0.52916 v 0.529167 h -0.52916 z m -7.9375,0 h 0.52916 v 0.529167 h -0.52916 z m -7.9375,0 h 0.52916 v 0.529167 h -0.52916 z m -7.9375,0 h 0.52916 v 0.529167 h -0.52916 z m -7.937504,0 h 0.529167 v 0.529167 h -0.529167 z m -7.9375,0 h 0.529167 v 0.529167 h -0.529167 z m -7.9375,0 h 0.529167 v 0.529167 h -0.529167 z m -7.9375,0 h 0.529167 v 0.529167 h -0.529167 z m -7.9375,0 h 0.529167 v 0.529167 h -0.529167 z m -7.9375,0 h 0.529167 v 0.529167 h -0.529167 z m -7.9375,0 h 0.529167 v 0.529167 h -0.529167 z m -7.9375,0 h 0.529167 v 0.529167 h -0.529167 z m -7.9375,0 h 0.529167 v 0.529167 h -0.529167 z m -7.9375,0 h 0.529167 v 0.529167 h -0.529167 z m -7.9375,0 h 0.529167 v 0.529167 h -0.529167 z m -7.9374996,0 h 0.5291667 v 0.529167 H 7.6729164 Z m 190.5000036,-7.9375 h 0.52916 v 0.529167 h -0.52916 z m -7.9375,0 h 0.52916 v 0.529167 h -0.52916 z m -7.9375,0 h 0.52916 v 0.529167 h -0.52916 z m -7.9375,0 h 0.52916 v 0.529167 h -0.52916 z m -7.9375,0 h 0.52916 v 0.529167 h -0.52916 z m -7.9375,0 h 0.52916 v 0.529167 h -0.52916 z m -7.9375,0 h 0.52916 v 0.529167 h -0.52916 z m -7.9375,0 h 0.52916 v 0.529167 h -0.52916 z m -7.9375,0 h 0.52916 v 0.529167 h -0.52916 z m -7.9375,0 h 0.52916 v 0.529167 h -0.52916 z m -7.9375,0 h 0.52916 v 0.529167 h -0.52916 z m -7.9375,0 h 0.52916 v 0.529167 h -0.52916 z m -7.9375,0 h 0.52916 v 0.529167 h -0.52916 z m -7.937504,0 h 0.529167 v 0.529167 h -0.529167 z m -7.9375,0 h 0.529167 v 0.529167 h -0.529167 z m -7.9375,0 h 0.529167 v 0.529167 h -0.529167 z m -7.9375,0 h 0.529167 v 0.529167 h -0.529167 z m -7.9375,0 h 0.529167 v 0.529167 h -0.529167 z m -7.9375,0 h 0.529167 v 0.529167 h -0.529167 z m -7.9375,0 h 0.529167 v 0.529167 h -0.529167 z m -7.9375,0 h 0.529167 v 0.529167 h -0.529167 z m -7.9375,0 h 0.529167 v 0.529167 h -0.529167 z m -7.9375,0 h 0.529167 v 0.529167 h -0.529167 z m -7.9375,0 h 0.529167 v 0.529167 h -0.529167 z m -7.9374996,0 h 0.5291667 v 0.529167 H 7.6729164 Z M 198.17292,7.6729164 h 0.52916 v 0.5291667 h -0.52916 z m -7.9375,0 h 0.52916 v 0.5291667 h -0.52916 z m -7.9375,0 h 0.52916 v 0.5291667 h -0.52916 z m -7.9375,0 h 0.52916 v 0.5291667 h -0.52916 z m -7.9375,0 h 0.52916 v 0.5291667 h -0.52916 z m -7.9375,0 h 0.52916 v 0.5291667 h -0.52916 z m -7.9375,0 h 0.52916 v 0.5291667 h -0.52916 z m -7.9375,0 h 0.52916 v 0.5291667 h -0.52916 z m -7.9375,0 h 0.52916 v 0.5291667 h -0.52916 z m -7.9375,0 h 0.52916 v 0.5291667 h -0.52916 z m -7.9375,0 h 0.52916 v 0.5291667 h -0.52916 z m -7.9375,0 h 0.52916 v 0.5291667 h -0.52916 z m -7.9375,0 h 0.52916 v 0.5291667 h -0.52916 z m -7.937504,0 h 0.529167 v 0.5291667 h -0.529167 z m -7.9375,0 h 0.529167 v 0.5291667 h -0.529167 z m -7.9375,0 h 0.529167 v 0.5291667 h -0.529167 z m -7.9375,0 h 0.529167 v 0.5291667 h -0.529167 z m -7.9375,0 h 0.529167 v 0.5291667 h -0.529167 z m -7.9375,0 h 0.529167 v 0.5291667 h -0.529167 z m -7.9375,0 h 0.529167 v 0.5291667 h -0.529167 z m -7.9375,0 h 0.529167 v 0.5291667 h -0.529167 z m -7.9375,0 h 0.529167 v 0.5291667 h -0.529167 z m -7.9375,0 h 0.529167 v 0.5291667 h -0.529167 z m -7.9375,0 h 0.529167 v 0.5291667 h -0.529167 z m -7.9374996,0 H 8.2020831 V 8.2020831 H 7.6729164 Z"
       inkscape:connector-curvature="0" />
  </g>
  <g
     style="display:none"
     inkscape:label="Grid Lines (odd width)"
     id="g5198"
     inkscape:groupmode="layer"
     sodipodi:insensitive="true">
    <path
       id="path5196"
       style="fill:none;stroke:#000000;stroke-width:0.26458332;stroke-linecap:butt;stroke-linejoin:miter;stroke-miterlimit:4;stroke-dasharray:none;stroke-opacity:1"
       d="m 0.26458333,111.25722 206.37499667,7e-5 M 0.26458333,103.31972 206.63958,103.31979 M 0.26458333,95.382227 206.63958,95.382297 M 0.26458333,87.444727 206.63958,87.444797 M 0.26458333,79.507227 206.63958,79.507297 M 0.26458333,71.569727 206.63958,71.569797 M 0.26458333,63.632227 206.63958,63.632297 M 0.26458333,55.694727 206.63958,55.694797 M 0.26458333,47.757227 206.63958,47.757297 M 0.26458333,39.819727 206.63958,39.819797 M 0.26458333,31.882227 206.63958,31.882297 M 0.26458333,23.944727 206.63958,23.944797 M 0.26458333,16.007227 206.63958,16.007297 M 0.26458333,8.0697262 206.63958,8.0697962 M 8.0697917,119.32708 V 0.26458334 M 16.007291,119.32708 V 0.26458334 M 23.944791,119.32708 V 0.26458334 M 31.882291,119.32708 V 0.26458334 M 39.819791,119.32708 V 0.26458334 M 47.757291,119.32708 V 0.26458334 M 55.694791,119.32708 V 0.26458334 M 63.632291,119.32708 V 0.26458334 M 71.569791,119.32708 V 0.26458334 M 79.507291,119.32708 V 0.26458334 M 87.444791,119.32708 V 0.26458334 M 95.382291,119.32708 V 0.26458334 M 103.31979,119.32708 V 0.26458334 M 111.25729,119.32708 V 0.26458334 M 119.19479,119.32708 V 0.26458334 M 127.13229,119.32708 V 0.26458334 M 135.06979,119.32708 V 0.26458334 M 143.00729,119.32708 V 0.26458334 M 150.94479,119.32708 V 0.26458334 M 158.88229,119.32708 V 0.26458334 M 166.81979,119.32708 V 0.26458334 M 174.75729,119.32708 V 0.26458334 M 182.69479,119.32708 V 0.26458334 M 190.63229,119.32708 V 0.26458334 M 198.56979,119.32708 V 0.26458334"
       inkscape:connector-curvature="0"
       inkscape:label="grid"
       sodipodi:nodetypes="cccccccccccccccccccccccccccccccccccccccccccccccccccccccccccccccccccccccccccccc" />
  </g>
  <g
     style="display:none"
     inkscape:label="Mid Field Grid Lines (even width)"
     id="g5281"
     inkscape:groupmode="layer"
     sodipodi:insensitive="true">
    <path
       style="fill:none;stroke:#000000;stroke-width:0.5291667;stroke-linecap:butt;stroke-linejoin:miter;stroke-miterlimit:4;stroke-dasharray:none;stroke-opacity:1"
       d="m 8.2020833,111.125 190.4999967,7e-5"
       id="path4680"
       inkscape:connector-curvature="0" />
    <path
       style="fill:none;stroke:#000000;stroke-width:0.5291667;stroke-linecap:butt;stroke-linejoin:miter;stroke-miterlimit:4;stroke-dasharray:none;stroke-opacity:1"
       d="m 8.2020833,103.1875 190.4999967,7e-5"
       id="path4678"
       inkscape:connector-curvature="0" />
    <path
       style="fill:none;stroke:#000000;stroke-width:0.5291667;stroke-linecap:butt;stroke-linejoin:miter;stroke-miterlimit:4;stroke-dasharray:none;stroke-opacity:1"
       d="m 8.2020833,95.249997 190.4999967,7e-5"
       id="path4676"
       inkscape:connector-curvature="0" />
    <path
       style="fill:none;stroke:#000000;stroke-width:0.5291667;stroke-linecap:butt;stroke-linejoin:miter;stroke-miterlimit:4;stroke-dasharray:none;stroke-opacity:1"
       d="m 8.2020833,87.312497 190.4999967,7e-5"
       id="path4674"
       inkscape:connector-curvature="0" />
    <path
       style="fill:none;stroke:#000000;stroke-width:0.5291667;stroke-linecap:butt;stroke-linejoin:miter;stroke-miterlimit:4;stroke-dasharray:none;stroke-opacity:1"
       d="m 8.2020833,79.374997 190.4999967,7e-5"
       id="path4672"
       inkscape:connector-curvature="0" />
    <path
       style="fill:none;stroke:#000000;stroke-width:0.5291667;stroke-linecap:butt;stroke-linejoin:miter;stroke-miterlimit:4;stroke-dasharray:none;stroke-opacity:1"
       d="m 8.2020833,71.437497 190.4999967,7e-5"
       id="path4670"
       inkscape:connector-curvature="0" />
    <path
       style="fill:none;stroke:#000000;stroke-width:0.5291667;stroke-linecap:butt;stroke-linejoin:miter;stroke-miterlimit:4;stroke-dasharray:none;stroke-opacity:1"
       d="m 8.2020833,63.499997 190.4999967,7e-5"
       id="path4668"
       inkscape:connector-curvature="0" />
    <path
       style="fill:none;stroke:#000000;stroke-width:0.5291667;stroke-linecap:butt;stroke-linejoin:miter;stroke-miterlimit:4;stroke-dasharray:none;stroke-opacity:1"
       d="m 8.2020833,55.562497 190.4999967,7e-5"
       id="path4666"
       inkscape:connector-curvature="0" />
    <path
       style="fill:none;stroke:#000000;stroke-width:0.5291667;stroke-linecap:butt;stroke-linejoin:miter;stroke-miterlimit:4;stroke-dasharray:none;stroke-opacity:1"
       d="m 8.2020833,47.624997 190.4999967,7e-5"
       id="path4664"
       inkscape:connector-curvature="0" />
    <path
       style="fill:none;stroke:#000000;stroke-width:0.5291667;stroke-linecap:butt;stroke-linejoin:miter;stroke-miterlimit:4;stroke-dasharray:none;stroke-opacity:1"
       d="m 8.2020833,39.687497 190.4999967,7e-5"
       id="path4662"
       inkscape:connector-curvature="0" />
    <path
       style="fill:none;stroke:#000000;stroke-width:0.5291667;stroke-linecap:butt;stroke-linejoin:miter;stroke-miterlimit:4;stroke-dasharray:none;stroke-opacity:1"
       d="m 8.2020833,31.749997 190.4999967,7e-5"
       id="path4660"
       inkscape:connector-curvature="0" />
    <path
       style="fill:none;stroke:#000000;stroke-width:0.5291667;stroke-linecap:butt;stroke-linejoin:miter;stroke-miterlimit:4;stroke-dasharray:none;stroke-opacity:1"
       d="m 8.2020833,23.812497 190.4999967,7e-5"
       id="path4658"
       inkscape:connector-curvature="0" />
    <path
       style="fill:none;stroke:#000000;stroke-width:0.5291667;stroke-linecap:butt;stroke-linejoin:miter;stroke-miterlimit:4;stroke-dasharray:none;stroke-opacity:1"
       d="m 8.2020833,15.874997 190.4999967,7e-5"
       id="path4655"
       inkscape:connector-curvature="0" />
    <path
       style="fill:none;stroke:#000000;stroke-width:0.5291667;stroke-linecap:butt;stroke-linejoin:miter;stroke-miterlimit:4;stroke-dasharray:none;stroke-opacity:1"
       d="m 8.2020833,7.9374967 190.4999967,7e-5"
       id="path4652"
       inkscape:connector-curvature="0" />
    <path
       style="fill:none;stroke:#000000;stroke-width:0.5291667;stroke-linecap:butt;stroke-linejoin:miter;stroke-miterlimit:4;stroke-dasharray:none;stroke-opacity:1"
       d="M 15.875,119.3271 V 0.2646"
       id="path4650"
       inkscape:connector-curvature="0" />
    <path
       style="fill:none;stroke:#000000;stroke-width:0.5291667;stroke-linecap:butt;stroke-linejoin:miter;stroke-miterlimit:4;stroke-dasharray:none;stroke-opacity:1"
       d="M 23.8125,119.3271 V 0.2646"
       id="path4648"
       inkscape:connector-curvature="0" />
    <path
       style="fill:none;stroke:#000000;stroke-width:0.5291667;stroke-linecap:butt;stroke-linejoin:miter;stroke-miterlimit:4;stroke-dasharray:none;stroke-opacity:1"
       d="M 31.75,119.3271 V 0.2646"
       id="path4646"
       inkscape:connector-curvature="0" />
    <path
       style="fill:none;stroke:#000000;stroke-width:0.5291667;stroke-linecap:butt;stroke-linejoin:miter;stroke-miterlimit:4;stroke-dasharray:none;stroke-opacity:1"
       d="M 39.6875,119.3271 V 0.2646"
       id="path4644"
       inkscape:connector-curvature="0" />
    <path
       style="fill:none;stroke:#000000;stroke-width:0.5291667;stroke-linecap:butt;stroke-linejoin:miter;stroke-miterlimit:4;stroke-dasharray:none;stroke-opacity:1"
       d="M 47.625,119.3271 V 0.2646"
       id="path4642"
       inkscape:connector-curvature="0" />
    <path
       style="fill:none;stroke:#000000;stroke-width:0.5291667;stroke-linecap:butt;stroke-linejoin:miter;stroke-miterlimit:4;stroke-dasharray:none;stroke-opacity:1"
       d="M 55.5625,119.3271 V 0.2646"
       id="path4640"
       inkscape:connector-curvature="0" />
    <path
       style="fill:none;stroke:#000000;stroke-width:0.5291667;stroke-linecap:butt;stroke-linejoin:miter;stroke-miterlimit:4;stroke-dasharray:none;stroke-opacity:1"
       d="M 63.5,119.3271 V 0.2646"
       id="path4638"
       inkscape:connector-curvature="0" />
    <path
       style="fill:none;stroke:#000000;stroke-width:0.5291667;stroke-linecap:butt;stroke-linejoin:miter;stroke-miterlimit:4;stroke-dasharray:none;stroke-opacity:1"
       d="M 71.4375,119.3271 V 0.2646"
       id="path4636"
       inkscape:connector-curvature="0" />
    <path
       style="fill:none;stroke:#000000;stroke-width:0.5291667;stroke-linecap:butt;stroke-linejoin:miter;stroke-miterlimit:4;stroke-dasharray:none;stroke-opacity:1"
       d="M 79.375,119.3271 V 0.2646"
       id="path4634"
       inkscape:connector-curvature="0" />
    <path
       style="fill:none;stroke:#000000;stroke-width:0.5291667;stroke-linecap:butt;stroke-linejoin:miter;stroke-miterlimit:4;stroke-dasharray:none;stroke-opacity:1"
       d="M 87.3125,119.3271 V 0.2646"
       id="path4632"
       inkscape:connector-curvature="0" />
    <path
       style="fill:none;stroke:#000000;stroke-width:0.5291667;stroke-linecap:butt;stroke-linejoin:miter;stroke-miterlimit:4;stroke-dasharray:none;stroke-opacity:1"
       d="M 95.25,119.3271 V 0.2646"
       id="path4630"
       inkscape:connector-curvature="0" />
    <path
       style="fill:none;stroke:#000000;stroke-width:0.5291667;stroke-linecap:butt;stroke-linejoin:miter;stroke-miterlimit:4;stroke-dasharray:none;stroke-opacity:1"
       d="M 103.1875,119.3271 V 0.2646"
       id="path4628"
       inkscape:connector-curvature="0" />
    <path
       style="fill:none;stroke:#000000;stroke-width:0.5291667;stroke-linecap:butt;stroke-linejoin:miter;stroke-miterlimit:4;stroke-dasharray:none;stroke-opacity:1"
       d="M 111.125,119.3271 V 0.2646"
       id="path4626"
       inkscape:connector-curvature="0" />
    <path
       style="fill:none;stroke:#000000;stroke-width:0.5291667;stroke-linecap:butt;stroke-linejoin:miter;stroke-miterlimit:4;stroke-dasharray:none;stroke-opacity:1"
       d="M 119.0625,119.3271 V 0.2646"
       id="path4624"
       inkscape:connector-curvature="0" />
    <path
       style="fill:none;stroke:#000000;stroke-width:0.5291667;stroke-linecap:butt;stroke-linejoin:miter;stroke-miterlimit:4;stroke-dasharray:none;stroke-opacity:1"
       d="M 127,119.3271 V 0.2646"
       id="path4622"
       inkscape:connector-curvature="0" />
    <path
       style="fill:none;stroke:#000000;stroke-width:0.5291667;stroke-linecap:butt;stroke-linejoin:miter;stroke-miterlimit:4;stroke-dasharray:none;stroke-opacity:1"
       d="M 134.9375,119.3271 V 0.2646"
       id="path4620"
       inkscape:connector-curvature="0" />
    <path
       style="fill:none;stroke:#000000;stroke-width:0.5291667;stroke-linecap:butt;stroke-linejoin:miter;stroke-miterlimit:4;stroke-dasharray:none;stroke-opacity:1"
       d="M 142.875,119.3271 V 0.2646"
       id="path4618"
       inkscape:connector-curvature="0" />
    <path
       style="fill:none;stroke:#000000;stroke-width:0.5291667;stroke-linecap:butt;stroke-linejoin:miter;stroke-miterlimit:4;stroke-dasharray:none;stroke-opacity:1"
       d="M 150.8125,119.3271 V 0.2646"
       id="path4616"
       inkscape:connector-curvature="0" />
    <path
       style="fill:none;stroke:#000000;stroke-width:0.5291667;stroke-linecap:butt;stroke-linejoin:miter;stroke-miterlimit:4;stroke-dasharray:none;stroke-opacity:1"
       d="M 158.75,119.3271 V 0.2646"
       id="path4614"
       inkscape:connector-curvature="0" />
    <path
       style="fill:none;stroke:#000000;stroke-width:0.5291667;stroke-linecap:butt;stroke-linejoin:miter;stroke-miterlimit:4;stroke-dasharray:none;stroke-opacity:1"
       d="M 166.6875,119.3271 V 0.2646"
       id="path4612"
       inkscape:connector-curvature="0" />
    <path
       style="fill:none;stroke:#000000;stroke-width:0.5291667;stroke-linecap:butt;stroke-linejoin:miter;stroke-miterlimit:4;stroke-dasharray:none;stroke-opacity:1"
       d="M 174.625,119.3271 V 0.2646"
       id="path4610"
       inkscape:connector-curvature="0" />
    <path
       style="fill:none;stroke:#000000;stroke-width:0.5291667;stroke-linecap:butt;stroke-linejoin:miter;stroke-miterlimit:4;stroke-dasharray:none;stroke-opacity:1"
       d="M 182.5625,119.3271 V 0.2646"
       id="path4608"
       inkscape:connector-curvature="0" />
    <path
       style="fill:none;stroke:#000000;stroke-width:0.5291667;stroke-linecap:butt;stroke-linejoin:miter;stroke-miterlimit:4;stroke-dasharray:none;stroke-opacity:1"
       d="M 190.5,119.3271 V 0.2646"
       id="path5279"
       inkscape:connector-curvature="0" />
  </g>
  <g
     inkscape:groupmode="layer"
     id="g5368"
     inkscape:label="Mid Field Grid Lines (odd width)"
     style="display:none"
     sodipodi:insensitive="true">
    <path
       id="path5372"
       style="fill:none;stroke:#000000;stroke-width:0.26458332;stroke-linecap:butt;stroke-linejoin:miter;stroke-miterlimit:4;stroke-dasharray:none;stroke-opacity:1"
       d="M 190.63229,119.32708 V 0.26458334 M 182.69479,119.32708 V 0.26458334 M 174.75729,119.32708 V 0.26458334 M 166.81979,119.32708 V 0.26458334 M 158.88229,119.32708 V 0.26458334 M 150.94479,119.32708 V 0.26458334 M 143.00729,119.32708 V 0.26458334 M 135.06979,119.32708 V 0.26458334 M 127.13229,119.32708 V 0.26458334 M 119.19479,119.32708 V 0.26458334 M 111.25729,119.32708 V 0.26458334 M 103.31979,119.32708 V 0.26458334 M 95.382291,119.32708 V 0.26458334 M 87.444791,119.32708 V 0.26458334 M 79.507291,119.32708 V 0.26458334 M 71.569791,119.32708 V 0.26458334 M 63.632291,119.32708 V 0.26458334 M 55.694791,119.32708 V 0.26458334 M 47.757291,119.32708 V 0.26458334 M 39.819791,119.32708 V 0.26458334 M 31.882291,119.32708 V 0.26458334 M 23.944791,119.32708 V 0.26458334 M 16.007291,119.32708 V 0.26458334 m -7.8052077,7.80514286 190.4999967,7e-5 M 8.2020833,16.007227 l 190.4999967,7e-5 m -190.4999967,7.93743 190.4999967,7e-5 m -190.4999967,7.93743 190.4999967,7e-5 m -190.4999967,7.93743 190.4999967,7e-5 m -190.4999967,7.93743 190.4999967,7e-5 m -190.4999967,7.93743 190.4999967,7e-5 m -190.4999967,7.93743 190.4999967,7e-5 m -190.4999967,7.93743 190.4999967,7e-5 m -190.4999967,7.93743 190.4999967,7e-5 m -190.4999967,7.93743 190.4999967,7e-5 m -190.4999967,7.93743 190.4999967,7e-5 m -190.4999967,7.937423 190.4999967,7e-5 m -190.4999967,7.93743 190.4999967,7e-5"
       inkscape:connector-curvature="0"
       inkscape:label="grid"
       sodipodi:nodetypes="cccccccccccccccccccccccccccccccccccccccccccccccccccccccccccccccccccccccccc" />
  </g>
  <g
     inkscape:groupmode="layer"
     id="layer3"
     inkscape:label="End Zones"
     style="display:none">
    <path
       id="path4711"
       style="fill:#000000;fill-opacity:1;fill-rule:nonzero;stroke:none;stroke-width:0.26458332;stroke-linecap:round;stroke-linejoin:round;stroke-miterlimit:4;stroke-dasharray:none;stroke-opacity:0.25098039"
       d="m 198.70208,0.26458334 h 7.9375 V 119.32709 h -7.9375 z M 0.26458332,0.26459658 H 8.2020833 V 119.3271 H 0.26458332 Z"
       inkscape:connector-curvature="0" />
  </g>
  <g
     style="display:none"
     inkscape:label="Wide Zones"
     id="g4673"
     inkscape:groupmode="layer"
     sodipodi:insensitive="true">
    <rect
       y="87.577095"
       x="8.2020836"
       height="31.749987"
       width="190.49998"
       id="rect4675"
       style="fill:#000000;stroke:none;stroke-width:0.26458332;stroke-linecap:round;stroke-linejoin:round;stroke-miterlimit:4;stroke-dasharray:none;stroke-opacity:0.25098039"
       inkscape:label="bottom" />
    <rect
       inkscape:label="top"
       style="fill:#000000;stroke:none;stroke-width:0.26458332;stroke-linecap:round;stroke-linejoin:round;stroke-miterlimit:4;stroke-dasharray:none;stroke-opacity:0.25098039"
       id="rect4671"
       width="190.49998"
       height="31.749987"
       x="8.2020836"
       y="0.26459658" />
  </g>
  <g
     inkscape:label="End Zone Lines (even width)"
     id="g4661"
     inkscape:groupmode="layer"
     style="display:none"
     sodipodi:insensitive="true">
    <path
       id="use4663"
       style="fill:none;stroke:#000000;stroke-width:0.5291667;stroke-linecap:butt;stroke-linejoin:miter;stroke-miterlimit:4;stroke-dasharray:none;stroke-opacity:1"
       d="M 198.4375,119.32708 V 0.26458334 M 7.9375,119.32708 V 0.26458334"
       inkscape:connector-curvature="0" />
  </g>
  <g
     style="display:none"
     inkscape:groupmode="layer"
     id="g5461"
     inkscape:label="End Zone Lines (odd width)"
     sodipodi:insensitive="true">
    <path
       inkscape:label="home"
       style="fill:none;stroke:#000000;stroke-width:0.26458332;stroke-linecap:butt;stroke-linejoin:miter;stroke-miterlimit:4;stroke-dasharray:none;stroke-opacity:1"
       d="M 8.0697917,119.32708 V 0.26458334"
       id="path5457"
       inkscape:connector-curvature="0"
       sodipodi:nodetypes="cc" />
    <path
       inkscape:connector-curvature="0"
       id="path5459"
       d="M 198.56979,119.32708 V 0.26458334"
       style="fill:none;stroke:#000000;stroke-width:0.26458332;stroke-linecap:butt;stroke-linejoin:miter;stroke-miterlimit:4;stroke-dasharray:none;stroke-opacity:1"
       inkscape:label="away"
       sodipodi:nodetypes="cc" />
  </g>
  <g
     inkscape:groupmode="layer"
     id="g4683"
     inkscape:label="Wide Zone Lines (even width)"
     style="display:none"
     sodipodi:insensitive="true">
    <path
       id="path4679"
       style="fill:none;stroke:#000000;stroke-width:0.5291667;stroke-linecap:butt;stroke-linejoin:miter;stroke-miterlimit:4;stroke-dasharray:none;stroke-opacity:1"
       d="M 198.70208,31.75 H 8.2020833 M 198.70208,87.3125 H 8.2020833"
       inkscape:connector-curvature="0" />
  </g>
  <g
     style="display:none"
     inkscape:label="Wide Zone Lines (odd width)"
     id="g4798"
     inkscape:groupmode="layer"
     sodipodi:insensitive="true">
    <path
       inkscape:label="bottom"
       style="fill:none;stroke:#000000;stroke-width:0.26458332;stroke-linecap:butt;stroke-linejoin:miter;stroke-miterlimit:4;stroke-dasharray:none;stroke-opacity:1"
       d="M 198.70208,87.444792 H 8.2020833"
       id="path4794"
       inkscape:connector-curvature="0"
       sodipodi:nodetypes="cc" />
    <path
       sodipodi:nodetypes="cc"
       inkscape:connector-curvature="0"
       id="path4796"
       d="M 198.70208,31.882292 H 8.2020833"
       style="fill:none;stroke:#000000;stroke-width:0.26458332;stroke-linecap:butt;stroke-linejoin:miter;stroke-miterlimit:4;stroke-dasharray:none;stroke-opacity:1"
       inkscape:label="top" />
  </g>
  <g
     inkscape:groupmode="layer"
     id="layer4"
     inkscape:label="Bisector (even width)"
     style="display:none"
     sodipodi:insensitive="true">
    <path
       style="fill:none;stroke:#000000;stroke-width:0.5291667;stroke-linecap:butt;stroke-linejoin:miter;stroke-miterlimit:4;stroke-dasharray:none;stroke-opacity:1"
       d="M 103.1875,119.32708 V 0.26458333"
       id="path4657"
       inkscape:connector-curvature="0"
       inkscape:label="bisector"
       sodipodi:nodetypes="cc" />
  </g>
  <g
     sodipodi:insensitive="true"
     style="display:none"
     inkscape:label="Bisector (odd width)"
     id="g5465"
     inkscape:groupmode="layer">
    <path
       sodipodi:nodetypes="cc"
       inkscape:label="bisector"
       inkscape:connector-curvature="0"
       id="path5463"
       d="M 103.31979,119.32708 V 0.26458334"
       style="fill:none;stroke:#000000;stroke-width:0.26458332;stroke-linecap:butt;stroke-linejoin:miter;stroke-miterlimit:4;stroke-dasharray:none;stroke-opacity:1" />
  </g>
  <g
     style="display:none"
     id="g4716"
     inkscape:groupmode="layer"
     inkscape:label="Border2 (stroke width = 2 x border width)"
     transform="translate(0,-177.40832)">
    <path
       inkscape:label="border"
       inkscape:connector-curvature="0"
       id="path4714"
       d="M 0,296.47082 H 206.375 V 177.40832 H 0 Z"
       style="fill:none;stroke:#000000;stroke-width:0.5291667;stroke-linecap:square;stroke-linejoin:miter;stroke-miterlimit:4;stroke-dasharray:none;stroke-opacity:1"
       sodipodi:nodetypes="ccccc" />
  </g>
  <g
     inkscape:label="Border (stroke width = 2 x border width)"
     inkscape:groupmode="layer"
     id="layer1"
     transform="translate(0,-177.40832)"
     style="display:none"
     sodipodi:insensitive="true">
    <path
       style="fill:none;stroke:#000000;stroke-width:0.5291667;stroke-linecap:square;stroke-linejoin:miter;stroke-miterlimit:4;stroke-dasharray:none;stroke-opacity:1"
       d="M 0,296.99999 H 206.90416 V 177.40832 H 0 Z"
       id="path4654"
       inkscape:connector-curvature="0"
       inkscape:label="border" />
  </g>
</svg>
