<?xml version="1.0" encoding="UTF-8" standalone="no"?>
<svg
   xmlns:dc="http://purl.org/dc/elements/1.1/"
   xmlns:cc="http://creativecommons.org/ns#"
   xmlns:rdf="http://www.w3.org/1999/02/22-rdf-syntax-ns#"
   xmlns:svg="http://www.w3.org/2000/svg"
   xmlns="http://www.w3.org/2000/svg"
   xmlns:xlink="http://www.w3.org/1999/xlink"
   xmlns:sodipodi="http://sodipodi.sourceforge.net/DTD/sodipodi-0.dtd"
   xmlns:inkscape="http://www.inkscape.org/namespaces/inkscape"
   inkscape:version="0.92.1 r15371"
   sodipodi:docname="paths.svg"
   id="svg4099"
   version="1.1"
   height="147"
   width="95"
   inkscape:export-filename="C:\Users\adam\github\boardball\images\portraits\premium\Root\symbol.png"
   inkscape:export-xdpi="96"
   inkscape:export-ydpi="96"
   style="enable-background:new">
  <sodipodi:namedview
     inkscape:snap-midpoints="false"
     inkscape:object-nodes="true"
     inkscape:snap-smooth-nodes="false"
     inkscape:snap-others="false"
     inkscape:snap-to-guides="true"
     inkscape:snap-grids="true"
     inkscape:snap-nodes="true"
     inkscape:bbox-nodes="true"
     inkscape:snap-bbox="true"
     inkscape:snap-center="false"
     inkscape:snap-intersection-paths="false"
     inkscape:object-paths="false"
     inkscape:guide-bbox="true"
     showguides="true"
     inkscape:snap-object-midpoints="false"
     inkscape:current-layer="layer5"
     inkscape:window-maximized="1"
     inkscape:window-y="-4"
     inkscape:window-x="-4"
     inkscape:cy="65.434979"
     inkscape:cx="44.084128"
     inkscape:zoom="6.5289507"
     inkscape:pagecheckerboard="false"
     showgrid="true"
     id="namedview4101"
     inkscape:window-height="753"
     inkscape:window-width="1280"
     inkscape:pageshadow="2"
     inkscape:pageopacity="0"
     guidetolerance="10"
     gridtolerance="10"
     objecttolerance="10"
     borderopacity="1"
     bordercolor="#666666"
     pagecolor="#ffffff"
     inkscape:snap-global="true"
     inkscape:bbox-paths="true"
     inkscape:measure-start="6.5,5"
     inkscape:measure-end="23.5,5"
     inkscape:lockguides="false">
    <inkscape:grid
       empspacing="0"
       dotted="false"
       snapvisiblegridlinesonly="false"
       id="grid4170"
       type="xygrid" />
    <inkscape:grid
       snapvisiblegridlinesonly="false"
       opacity="0.1254902"
       color="#ff3f3f"
       empopacity="0.25098039"
       empcolor="#ff3f3f"
       empspacing="0"
       originy="0.5"
       originx="0.5"
       dotted="true"
       id="grid5009"
       type="xygrid"
       enabled="false" />
  </sodipodi:namedview>
  <metadata
     id="metadata4103">
    <rdf:RDF>
      <cc:Work
         rdf:about="">
        <dc:format>image/svg+xml</dc:format>
        <dc:type
           rdf:resource="http://purl.org/dc/dcmitype/StillImage" />
        <dc:title></dc:title>
      </cc:Work>
    </rdf:RDF>
  </metadata>
  <defs
     id="defs3781">
    <linearGradient
       id="0">
      <stop
         id="stop3774"
         stop-opacity="0.678"
         stop-color="#d7a127" />
      <stop
         id="stop3776"
         stop-opacity="0"
         stop-color="#ffffe6"
         offset="1" />
    </linearGradient>
    <linearGradient
       id="linearGradient3779"
       y2="71.57"
       x2="133.02"
       y1="102.16"
       x1="196.98"
       gradientUnits="userSpaceOnUse"
       xlink:href="#0" />
    <marker
       style="overflow:visible"
       refY="0"
       refX="0"
       orient="auto"
       id="DistanceX">
      <path
         id="path4528"
         style="stroke:#000000;stroke-width:0.5"
         d="M 3,-3 -3,3 M 0,-5 V 5"
         inkscape:connector-curvature="0" />
    </marker>
    <pattern
       y="0"
       x="0"
       width="8"
       patternUnits="userSpaceOnUse"
       id="Hatch"
       height="8">
      <path
         id="path4531"
         stroke-width="0.25"
         stroke="#000000"
         linecap="square"
         d="M8 4 l-4,4" />
      <path
         id="path4533"
         stroke-width="0.25"
         stroke="#000000"
         linecap="square"
         d="M6 2 l-4,4" />
      <path
         id="path4535"
         stroke-width="0.25"
         stroke="#000000"
         linecap="square"
         d="M4 0 l-4,4" />
    </pattern>
    <symbol
       id="*Model_Space" />
    <symbol
       id="*Paper_Space" />
    <marker
       style="overflow:visible"
       refY="0"
       refX="0"
       orient="auto"
       id="DistanceX-1">
      <path
         id="path4661"
         style="stroke:#000000;stroke-width:0.5"
         d="M 3,-3 -3,3 M 0,-5 V 5"
         inkscape:connector-curvature="0" />
    </marker>
    <pattern
       y="0"
       x="0"
       width="8"
       patternUnits="userSpaceOnUse"
       id="Hatch-4"
       height="8">
      <path
         id="path4664"
         stroke-width="0.25"
         stroke="#000000"
         linecap="square"
         d="M8 4 l-4,4" />
      <path
         id="path4666"
         stroke-width="0.25"
         stroke="#000000"
         linecap="square"
         d="M6 2 l-4,4" />
      <path
         id="path4668"
         stroke-width="0.25"
         stroke="#000000"
         linecap="square"
         d="M4 0 l-4,4" />
    </pattern>
    <symbol
       id="*Model_Space-0" />
    <symbol
       id="*Paper_Space-3" />
    <marker
       style="overflow:visible"
       refY="0"
       refX="0"
       orient="auto"
       id="DistanceX-8">
      <path
         id="path4754"
         style="stroke:#000000;stroke-width:0.5"
         d="M 3,-3 -3,3 M 0,-5 V 5"
         inkscape:connector-curvature="0" />
    </marker>
    <pattern
       y="0"
       x="0"
       width="8"
       patternUnits="userSpaceOnUse"
       id="Hatch-1"
       height="8">
      <path
         id="path4757"
         stroke-width="0.25"
         stroke="#000000"
         linecap="square"
         d="M8 4 l-4,4" />
      <path
         id="path4759"
         stroke-width="0.25"
         stroke="#000000"
         linecap="square"
         d="M6 2 l-4,4" />
      <path
         id="path4761"
         stroke-width="0.25"
         stroke="#000000"
         linecap="square"
         d="M4 0 l-4,4" />
    </pattern>
    <symbol
       id="*Model_Space-7" />
    <symbol
       id="*Paper_Space-4" />
    <marker
       style="overflow:visible"
       refY="0"
       refX="0"
       orient="auto"
       id="DistanceX-3">
      <path
         id="path4905"
         style="stroke:#000000;stroke-width:0.5"
         d="M 3,-3 -3,3 M 0,-5 V 5"
         inkscape:connector-curvature="0" />
    </marker>
    <pattern
       y="0"
       x="0"
       width="8"
       patternUnits="userSpaceOnUse"
       id="Hatch-43"
       height="8">
      <path
         id="path4908"
         stroke-width="0.25"
         stroke="#000000"
         linecap="square"
         d="M8 4 l-4,4" />
      <path
         id="path4910"
         stroke-width="0.25"
         stroke="#000000"
         linecap="square"
         d="M6 2 l-4,4" />
      <path
         id="path4912"
         stroke-width="0.25"
         stroke="#000000"
         linecap="square"
         d="M4 0 l-4,4" />
    </pattern>
    <symbol
       id="*Model_Space-9" />
    <symbol
       id="*Paper_Space-6" />
    <marker
       style="overflow:visible"
       refY="0"
       refX="0"
       orient="auto"
       id="DistanceX-0">
      <path
         id="path4768"
         style="stroke:#000000;stroke-width:0.5"
         d="M 3,-3 -3,3 M 0,-5 V 5"
         inkscape:connector-curvature="0" />
    </marker>
    <pattern
       y="0"
       x="0"
       width="8"
       patternUnits="userSpaceOnUse"
       id="Hatch-5"
       height="8">
      <path
         id="path4771"
         stroke-width="0.25"
         stroke="#000000"
         linecap="square"
         d="M8 4 l-4,4" />
      <path
         id="path4773"
         stroke-width="0.25"
         stroke="#000000"
         linecap="square"
         d="M6 2 l-4,4" />
      <path
         id="path4775"
         stroke-width="0.25"
         stroke="#000000"
         linecap="square"
         d="M4 0 l-4,4" />
    </pattern>
    <symbol
       id="*Model_Space-5" />
    <symbol
       id="*Paper_Space-2" />
    <marker
       style="overflow:visible"
       refY="0"
       refX="0"
       orient="auto"
       id="DistanceX-4">
      <path
         id="path4843"
         style="stroke:#000000;stroke-width:0.5"
         d="M 3,-3 -3,3 M 0,-5 V 5"
         inkscape:connector-curvature="0" />
    </marker>
    <pattern
       y="0"
       x="0"
       width="8"
       patternUnits="userSpaceOnUse"
       id="Hatch-47"
       height="8">
      <path
         id="path4846"
         stroke-width="0.25"
         stroke="#000000"
         linecap="square"
         d="M8 4 l-4,4" />
      <path
         id="path4848"
         stroke-width="0.25"
         stroke="#000000"
         linecap="square"
         d="M6 2 l-4,4" />
      <path
         id="path4850"
         stroke-width="0.25"
         stroke="#000000"
         linecap="square"
         d="M4 0 l-4,4" />
    </pattern>
    <symbol
       id="*Model_Space-6" />
    <symbol
       id="*Paper_Space-47" />
    <marker
       style="overflow:visible"
       refY="0"
       refX="0"
       orient="auto"
       id="DistanceX-5">
      <path
         id="path4934"
         style="stroke:#000000;stroke-width:0.5"
         d="M 3,-3 -3,3 M 0,-5 V 5"
         inkscape:connector-curvature="0" />
    </marker>
    <pattern
       y="0"
       x="0"
       width="8"
       patternUnits="userSpaceOnUse"
       id="Hatch-8"
       height="8">
      <path
         id="path4937"
         stroke-width="0.25"
         stroke="#000000"
         linecap="square"
         d="M8 4 l-4,4" />
      <path
         id="path4939"
         stroke-width="0.25"
         stroke="#000000"
         linecap="square"
         d="M6 2 l-4,4" />
      <path
         id="path4941"
         stroke-width="0.25"
         stroke="#000000"
         linecap="square"
         d="M4 0 l-4,4" />
    </pattern>
    <symbol
       id="*Model_Space-00" />
    <symbol
       id="*Paper_Space-7" />
    <marker
       style="overflow:visible"
       refY="0"
       refX="0"
       orient="auto"
       id="DistanceX-2">
      <path
         id="path5038"
         style="stroke:#000000;stroke-width:0.5"
         d="M 3,-3 -3,3 M 0,-5 V 5"
         inkscape:connector-curvature="0" />
    </marker>
    <pattern
       y="0"
       x="0"
       width="8"
       patternUnits="userSpaceOnUse"
       id="Hatch-7"
       height="8">
      <path
         id="path5041"
         stroke-width="0.25"
         stroke="#000000"
         linecap="square"
         d="M8 4 l-4,4" />
      <path
         id="path5043"
         stroke-width="0.25"
         stroke="#000000"
         linecap="square"
         d="M6 2 l-4,4" />
      <path
         id="path5045"
         stroke-width="0.25"
         stroke="#000000"
         linecap="square"
         d="M4 0 l-4,4" />
    </pattern>
    <symbol
       id="*Model_Space-1" />
    <symbol
       id="*Paper_Space-26" />
    <marker
       style="overflow:visible"
       refY="0"
       refX="0"
       orient="auto"
       id="DistanceX-16">
      <path
         id="path5764"
         style="stroke:#000000;stroke-width:0.5"
         d="M 3,-3 -3,3 M 0,-5 V 5"
         inkscape:connector-curvature="0" />
    </marker>
    <pattern
       y="0"
       x="0"
       width="8"
       patternUnits="userSpaceOnUse"
       id="Hatch-45"
       height="8">
      <path
         id="path5767"
         stroke-width="0.25"
         stroke="#000000"
         linecap="square"
         d="M8 4 l-4,4" />
      <path
         id="path5769"
         stroke-width="0.25"
         stroke="#000000"
         linecap="square"
         d="M6 2 l-4,4" />
      <path
         id="path5771"
         stroke-width="0.25"
         stroke="#000000"
         linecap="square"
         d="M4 0 l-4,4" />
    </pattern>
    <symbol
       id="*Model_Space-93" />
    <symbol
       id="*Paper_Space-73" />
  </defs>
  <g
     inkscape:groupmode="layer"
     id="layer1"
     inkscape:label="mask"
     style="display:none">
    <rect
       style="fill:#000000;stroke:none;stroke-width:4.96282482;stroke-linecap:round;stroke-linejoin:round;stroke-miterlimit:4;stroke-dasharray:none;stroke-opacity:1"
       id="rect5841"
       width="95"
       height="147"
       x="0"
       y="0"
       inkscape:label="black" />
    <rect
       style="display:inline;fill:#ffffff;stroke:none;stroke-width:1.0176419;stroke-linecap:round;stroke-linejoin:round;stroke-miterlimit:4;stroke-dasharray:none;stroke-opacity:1;enable-background:new"
       id="rect5831"
       width="95"
       height="147"
       x="0"
       y="0"
       ry="8"
       rx="8"
       inkscape:label="white" />
  </g>
  <g
     inkscape:groupmode="layer"
     id="layer4"
     inkscape:label="border"
     style="display:none">
    <rect
       rx="7.5"
       ry="7.5"
       y="0.5"
       x="0.5"
       height="146"
       width="94"
       id="rect5835"
       style="display:inline;fill:none;stroke:#000000;stroke-width:1;stroke-linecap:round;stroke-linejoin:round;stroke-miterlimit:4;stroke-dasharray:none;stroke-opacity:1;enable-background:new"
       inkscape:label="border" />
  </g>
  <g
     inkscape:groupmode="layer"
     id="layer6"
     inkscape:label="symbol background"
     style="display:inline"
     sodipodi:insensitive="true">
    <path
       transform="translate(0,115)"
       style="display:inline;fill:#ffffff;stroke:#000000;stroke-width:2;stroke-linecap:round;stroke-miterlimit:4;stroke-dasharray:none;enable-background:new"
       d="m 87.5,-41.499988 a 40,40 0 1 0 -80,0 40,40 0 1 0 80,0 z"
       id="path5861"
       inkscape:connector-curvature="0"
       inkscape:label="Symbol Background" />
  </g>
  <g
     inkscape:groupmode="layer"
     id="layer3"
     inkscape:label="nums 1-8"
     style="display:none;opacity:1"
     transform="translate(0,115)"
     sodipodi:insensitive="true">
    <text
       xml:space="preserve"
       style="font-style:normal;font-variant:normal;font-weight:bold;font-stretch:normal;font-size:64px;line-height:1.25;font-family:'Open Sans';-inkscape-font-specification:'Open Sans Bold';text-align:center;letter-spacing:0px;word-spacing:0px;text-anchor:middle;display:none;fill:#000000;fill-opacity:1;stroke:none;stroke-width:4"
       x="47.46875"
       y="-18.671875"
       id="text7279"
       inkscape:label="8"><tspan
         sodipodi:role="line"
         id="tspan7277"
         x="47.46875"
         y="-18.671875"
         style="stroke-width:4">8</tspan></text>
    <text
       xml:space="preserve"
       style="font-style:normal;font-variant:normal;font-weight:bold;font-stretch:normal;font-size:64px;line-height:1.25;font-family:'Open Sans';-inkscape-font-specification:'Open Sans Bold';text-align:center;letter-spacing:0px;word-spacing:0px;text-anchor:middle;display:none;fill:#000000;fill-opacity:1;stroke:none;stroke-width:4"
       x="47.46875"
       y="-18.671875"
       id="text7311"
       inkscape:label="7"><tspan
         sodipodi:role="line"
         id="tspan7309"
         x="47.46875"
         y="-18.671875"
         style="stroke-width:4">7</tspan></text>
    <text
       id="text7283"
       y="-18.671875"
       x="47.46875"
       style="font-style:normal;font-variant:normal;font-weight:bold;font-stretch:normal;font-size:64px;line-height:1.25;font-family:'Open Sans';-inkscape-font-specification:'Open Sans Bold';text-align:center;letter-spacing:0px;word-spacing:0px;text-anchor:middle;display:none;fill:#000000;fill-opacity:1;stroke:none;stroke-width:4"
       xml:space="preserve"
       inkscape:label="6"><tspan
         y="-18.671875"
         x="47.46875"
         sodipodi:role="line"
         id="tspan7313"
         style="stroke-width:4">6</tspan></text>
    <text
       xml:space="preserve"
       style="font-style:normal;font-variant:normal;font-weight:bold;font-stretch:normal;font-size:64px;line-height:1.25;font-family:'Open Sans';-inkscape-font-specification:'Open Sans Bold';text-align:center;letter-spacing:0px;word-spacing:0px;text-anchor:middle;display:none;fill:#000000;fill-opacity:1;stroke:none;stroke-width:4"
       x="47.46875"
       y="-18.671875"
       id="text7287"
       inkscape:label="5"><tspan
         sodipodi:role="line"
         id="tspan7285"
         x="47.46875"
         y="-18.671875"
         style="stroke-width:4">5</tspan></text>
    <text
       id="text7291"
       y="-18.671875"
       x="47.46875"
       style="font-style:normal;font-variant:normal;font-weight:bold;font-stretch:normal;font-size:64px;line-height:1.25;font-family:'Open Sans';-inkscape-font-specification:'Open Sans Bold';text-align:center;letter-spacing:0px;word-spacing:0px;text-anchor:middle;display:none;fill:#000000;fill-opacity:1;stroke:none;stroke-width:4"
       xml:space="preserve"
       inkscape:label="4"><tspan
         y="-18.671875"
         x="47.46875"
         id="tspan7289"
         sodipodi:role="line"
         style="stroke-width:4">4</tspan></text>
    <text
       xml:space="preserve"
       style="font-style:normal;font-variant:normal;font-weight:bold;font-stretch:normal;font-size:64px;line-height:1.25;font-family:'Open Sans';-inkscape-font-specification:'Open Sans Bold';text-align:center;letter-spacing:0px;word-spacing:0px;text-anchor:middle;display:none;fill:#000000;fill-opacity:1;stroke:none;stroke-width:4"
       x="47.46875"
       y="-18.671875"
       id="text7295"
       inkscape:label="3"><tspan
         sodipodi:role="line"
         id="tspan7293"
         x="47.46875"
         y="-18.671875"
         style="stroke-width:4">3</tspan></text>
    <text
       id="text7299"
       y="-18.671875"
       x="47.46875"
       style="font-style:normal;font-variant:normal;font-weight:bold;font-stretch:normal;font-size:64px;line-height:1.25;font-family:'Open Sans';-inkscape-font-specification:'Open Sans Bold';text-align:center;letter-spacing:0px;word-spacing:0px;text-anchor:middle;display:none;fill:#000000;fill-opacity:1;stroke:none;stroke-width:4"
       xml:space="preserve"
       inkscape:label="2"><tspan
         y="-18.671875"
         x="47.46875"
         id="tspan7297"
         sodipodi:role="line"
         style="stroke-width:4">2</tspan></text>
    <text
       xml:space="preserve"
       style="font-style:normal;font-variant:normal;font-weight:bold;font-stretch:normal;font-size:64px;line-height:1.25;font-family:'Open Sans';-inkscape-font-specification:'Open Sans Bold';text-align:center;letter-spacing:0px;word-spacing:0px;text-anchor:middle;display:inline;fill:#000000;fill-opacity:1;stroke:none;stroke-width:4"
       x="47.46875"
       y="-18.671875"
       id="text7303"
       inkscape:label="1"><tspan
         sodipodi:role="line"
         id="tspan7301"
         x="47.46875"
         y="-18.671875"
         style="stroke-width:4">1</tspan></text>
  </g>
  <g
     inkscape:groupmode="layer"
     id="layer2"
     inkscape:label="nums I,II"
     style="display:none"
     transform="translate(0,117)"
     sodipodi:insensitive="true">
    <circle
       style="display:inline;fill:#000000;stroke:none;stroke-width:2;stroke-linecap:round;stroke-miterlimit:4;stroke-dasharray:none;stroke-opacity:1"
       id="path4764"
       cx="47.5"
       cy="-43.5"
       r="8"
       inkscape:label="2"
       inkscape:export-filename="C:\Users\adam\github\boardball\H\b_nums\1.png"
       inkscape:export-xdpi="96"
       inkscape:export-ydpi="96" />
  </g>
  <g
     inkscape:groupmode="layer"
     id="layer5"
     inkscape:label="symbols"
     style="display:inline"
     transform="translate(0,115)">
    <path
       style="display:none;fill:#000000;stroke:#000000;stroke-width:2;stroke-linecap:round;stroke-miterlimit:4;stroke-dasharray:none"
       d="m 47.031356,-73.491145 a 32.000001,32.000001 0 0 0 -31.367186,35.218752 1.1428573,1.1428573 0 0 0 2.273438,0 24.081221,24.081221 0 0 1 40.992188,-14.656252 7.9187796,7.9187796 0 0 0 11.195312,-11.195312 32.000001,32.000001 0 0 0 -23.093752,-9.367188 z m 31.132816,27.742188 a 1.1428573,1.1428573 0 0 0 -1.101564,1.023436 24.081221,24.081221 0 0 1 -40.992188,14.656252 7.9187848,7.9187848 0 0 0 -11.195312,11.195312 32.000001,32.000001 0 0 0 54.460936,-25.851564 1.1428573,1.1428573 0 0 0 -1.171872,-1.023436 z"
       id="path5056"
       inkscape:connector-curvature="0"
       inkscape:label="Vortex"
       sodipodi:insensitive="true" />
    <path
       inkscape:connector-curvature="0"
       d="m 19.5,-41.499999 a 2.5714289,2.5714289 0 0 0 1.691275,2.41612 40,40 0 0 1 23.892617,23.892616 A 2.5714289,2.5714289 0 0 0 47.5,-13.499991 2.5714289,2.5714289 0 0 0 49.916108,-15.191263 40,40 0 0 1 73.808724,-39.083879 2.5714289,2.5714289 0 0 0 75.5,-41.499999 2.5714289,2.5714289 0 0 0 73.808724,-43.916123 40,40 0 0 1 49.916108,-67.808739 2.5714289,2.5714289 0 0 0 47.5,-69.500008 2.5714289,2.5714289 0 0 0 45.083892,-67.808739 40,40 0 0 1 21.191275,-43.916123 2.5714289,2.5714289 0 0 0 19.5,-41.499999 Z"
       style="display:none;fill:#000000;stroke:#000000;stroke-width:2;stroke-linecap:round;stroke-miterlimit:4;stroke-dasharray:none"
       id="path5780"
       inkscape:label="Asterix"
       inkscape:export-filename="C:\Users\adam\github\boardball\images\portraits\base\Great\path5780.png"
       inkscape:export-xdpi="96"
       inkscape:export-ydpi="96"
       sodipodi:insensitive="true" />
    <path
       id="path4956"
       style="display:none;fill:#000000;stroke:#000000;stroke-width:2;stroke-linecap:round;stroke-miterlimit:4;stroke-dasharray:none"
       d="m 58.998323,-28.008791 a 19.48306,19.48306 0 0 1 -4.88598,17.987488 2.0891993,2.0891993 0 0 0 2.008872,3.473768 36.000001,36.000001 0 0 0 26.331248,-26.331228 2.0891993,2.0891993 0 0 0 -3.473752,-2.008876 19.48306,19.48306 0 0 1 -17.987488,4.885956 1.654854,1.654854 0 0 0 -1.9929,1.992892 z m -24.989548,-1.992892 a 19.48306,19.48306 0 0 1 -17.987488,-4.885956 2.0891993,2.0891993 0 0 0 -3.473751,2.008824 36.000001,36.000001 0 0 0 26.331247,26.33128 2.0891993,2.0891993 0 0 0 2.008872,-3.473768 19.48306,19.48306 0 0 1 -4.88598,-17.987488 1.654854,1.654854 0 0 0 -1.9929,-1.992892 z m 1.9929,-24.989528 a 19.48306,19.48306 0 0 1 4.88598,-17.987486 2.0891993,2.0891993 0 0 0 -2.008872,-3.473768 36.000001,36.000001 0 0 0 -26.331247,26.33123 2.0891993,2.0891993 0 0 0 3.473751,2.008872 19.48306,19.48306 0 0 1 17.987488,-4.885952 1.654854,1.654854 0 0 0 1.9929,-1.992896 z m 24.989548,1.992896 a 19.48306,19.48306 0 0 1 17.987488,4.885952 2.0891993,2.0891993 0 0 0 3.473752,-2.008872 36.000001,36.000001 0 0 0 -26.331248,-26.33123 2.0891993,2.0891993 0 0 0 -2.008872,3.473768 19.48306,19.48306 0 0 1 4.88598,17.987486 1.654854,1.654854 0 0 0 1.9929,1.992896 z"
       inkscape:connector-curvature="0"
       inkscape:label="Host" />
    <path
       id="path5854"
       style="display:none;fill:#000000;stroke:#000000;stroke-width:2;stroke-linecap:round;stroke-miterlimit:4;stroke-dasharray:none"
       d="m 87.5,-41.499988 a 40,40 0 1 0 -80,0 40,40 0 1 0 80,0 z m -1.95774,-12.360696 a 13.6,13.6 0 0 1 -8.14966,16.93312 6.2551436,6.2551436 0 0 0 -3.021336,9.298728 13.6,13.6 0 0 1 -3.359852,18.489508 13.6,13.6 0 0 1 -18.622784,-2.5182 6.2551436,6.2551436 0 0 0 -9.777256,0 13.6,13.6 0 0 1 -18.622782,2.5182 13.6,13.6 0 0 1 -3.359852,-18.489508 6.2551436,6.2551436 0 0 0 -3.021338,-9.298728 13.6,13.6 0 0 1 -8.14966,-16.93312 13.6,13.6 0 0 1 16.54628,-8.908944 6.2551436,6.2551436 0 0 0 7.909964,-5.746964 13.6,13.6 0 0 1 13.586016,-12.98342 13.6,13.6 0 0 1 13.586016,12.98342 6.2551436,6.2551436 0 0 0 7.909964,5.746964 13.6,13.6 0 0 1 16.54628,8.908944 z"
       inkscape:connector-curvature="0"
       inkscape:label="Great"
       sodipodi:insensitive="true" />
    <path
       style="display:inline;fill:#000000;fill-rule:evenodd;stroke:#000000;stroke-width:1.5;stroke-linecap:round;stroke-linejoin:round;stroke-miterlimit:4;stroke-dasharray:none;stroke-opacity:1;enable-background:new"
       d="m 46.308599,-81.253207 a 40,40 0 0 0 -22.367188,7.64064 c 1.690872,-0.2964 3.258852,-0.1036 4.52344,1.17968 2.01634,2.04608 -0.405032,5.99572 -1.257812,8.82812 -0.844244,2.80416 -1.433012,6.29504 -3.757812,7.8672 -3.584616,2.42416 -9.65356,-2.76372 -12.71094,0.3828 -0.3166,0.326 -0.65612,0.5518 -0.984376,0.82812 a 40,40 0 0 0 -2.234372,11.53908 c 1.624892,-0.94404 3.257,-1.43992 4.828124,-0.66408 1.474424,0.72808 0.979032,3.323 1.4375,4.9922 1.120464,4.07948 5.995516,8.16068 6.976564,12.28124 0.923528,3.87902 -1.323968,7.700572 -1.25,11.703136 0.0108,0.57606 -0.0376,1.247192 -0.07812,1.906248 a 40,40 0 0 0 1.203124,1.093752 c 1.4845,-4.509704 3.020048,-8.986424 4.242184,-12.015616 1.266964,-3.14032 -2.302484,-6.38036 -3.398436,-9.59376 -0.803564,-2.35604 -2.249904,-4.59436 -2.328124,-7.10156 -0.0746,-2.3886 0.501816,-4.95492 1.78906,-6.90624 1.261648,-1.91252 3.670868,-2.56508 5.375,-4.03128 3.787744,-3.25892 7.3345,-6.8366 10.734376,-10.55468 3.729068,-4.07804 5.333636,-13.95112 10.5625,-12.85936 4.779128,0.99784 4.621776,9.55908 4.83594,14.77344 0.14896,3.6268 -0.750416,7.45144 -2.507816,10.55468 -1.162312,2.05248 -3.67148,2.86996 -5.007812,4.79688 -1.178604,1.69944 -1.574468,3.89144 -2.507812,5.7578 -1.353876,2.70724 -3.607316,4.94024 -4.47656,7.8672 -1.052348,3.5436 0.38112,7.6058 -0.718752,11.132808 -0.35488,1.137988 2.646304,8.690228 3.867188,12.6249997 -0.15896,-1.602132 -0.31756,-3.4915357 -0.46094,-4.7578157 -0.406704,-3.592072 -2.057316,-7.185264 -1.437496,-10.742184 0.51508,-2.955968 2.197948,-5.674088 4.117184,-7.867168 2.627164,-3.00204 5.935816,-7.66948 9.671876,-6.71876 2.758192,0.70184 3.043524,5.14144 4.296876,7.86716 1.680348,3.65444 -0.910548,13.294368 -0.09376,17.273456 0.572268,2.7879397 1.491216,5.9408877 2.429688,8.9843717 a 40,40 0 0 0 0.429688,-0.125 c -1.39944,-6.250368 -2.009952,-13.0395197 1.664064,-14.0468757 3.408426,-0.93454 6.672674,3.408564 9.281246,8.4531277 a 40,40 0 0 0 1.914064,-1.5390637 c -2.0011,-6.175476 -4.911968,-12.419824 -9.093752,-14.781256 -5.184106,-2.92744 -4.248018,-13.68192 -4.562498,-19.57032 -0.14132,-2.64616 0.012,-5.47172 1.070316,-7.86716 1.175124,-2.65992 3.340574,-4.7718 5.54687,-6.52344 2.123424,-1.68588 4.522424,-3.71696 7.164064,-3.64844 1.894876,0.0492 3.546484,1.59116 5.015624,2.875 2.528596,2.20964 5.257728,4.73648 6.265624,8.06248 0.554272,1.82916 2.184056,4.96204 1.695312,6.81252 -1.01068,3.8268 -6.7179,5.56388 -7.25,9.5 -0.39276,2.90512 0.30596,6.0558 1.617188,8.6328 0.621984,1.22244 1.881476,2.09284 3.171876,2.94532 a 40,40 0 0 0 2.140624,-5.60936 c -0.551452,-1.33368 -1.03502,-2.688 -1.375,-4.04688 -0.32792,-1.3106 -0.17796,-2.90732 0.531252,-4.03128 0.55974,-0.88704 1.58164,-1.23044 2.578124,-1.60936 a 40,40 0 0 0 0.05468,-1.96092 40,40 0 0 0 -41.171874,-39.9844 z m -5.210936,74.0234477 c 0.13076,1.318124 0.25276,2.52182 0.3828,3.91406 0.0448,-0.5528 0.06968,-1.08052 0.14064,-1.66406 0.0392,-0.3232 -0.1918,-1.18124 -0.523436,-2.25 z m 0.3828,3.91406 c -0.04196,0.517792 -0.1034,1.057048 -0.125,1.546876 a 40,40 0 0 0 0.28124,0.0392 c -0.0514,-0.560508 -0.10352,-1.021916 -0.15624,-1.586076 z"
       id="path6610"
       inkscape:connector-curvature="0"
       inkscape:label="Root Cutted" />
  </g>
</svg>
